<?xml version="1.0" standalone="no"?>
<!DOCTYPE svg PUBLIC "-//W3C//DTD SVG 20010904//EN"
 "http://www.w3.org/TR/2001/REC-SVG-20010904/DTD/svg10.dtd">
<svg version="1.0" xmlns="http://www.w3.org/2000/svg"
 width="1280.000000pt" height="1024.000000pt" viewBox="0 0 1280.000000 1024.000000"
 preserveAspectRatio="xMidYMid meet">

<g transform="translate(0.000000,1024.000000) scale(0.100000,-0.100000)"
fill="#000000" stroke="none">
<path d="M7570 8816 c0 -2 11 -28 24 -57 107 -244 32 -529 -205 -783 -95 -102
-191 -180 -394 -321 -706 -491 -953 -684 -1226 -955 -244 -243 -361 -397 -464
-612 -74 -153 -105 -271 -112 -425 -12 -243 49 -447 203 -678 59 -88 164 -218
171 -212 2 3 -12 31 -32 62 -183 286 -187 673 -11 1024 163 323 384 550 1136
1166 140 115 305 251 365 303 151 128 380 356 456 452 235 296 298 561 199
832 -35 95 -110 235 -110 204z"/>
<path d="M7716 8045 c-4 -16 -12 -50 -17 -74 -23 -100 -133 -290 -249 -431
-145 -175 -404 -416 -650 -605 -252 -194 -502 -427 -672 -625 -246 -289 -421
-610 -484 -891 -25 -110 -23 -321 4 -420 43 -158 150 -325 278 -434 73 -62
183 -139 190 -133 2 3 -17 31 -42 64 -177 228 -215 551 -104 886 73 217 257
519 499 813 109 132 250 285 548 593 392 406 513 554 613 752 60 119 87 207
100 324 12 99 0 241 -14 181z"/>
<path d="M6686 5798 c5 -7 25 -35 46 -62 102 -129 160 -315 160 -511 -1 -259
-91 -511 -292 -815 -197 -297 -321 -443 -804 -945 -406 -421 -525 -567 -622
-757 -59 -117 -91 -215 -104 -320 -9 -77 -5 -226 7 -214 2 2 10 33 18 68 25
120 127 303 255 458 145 175 404 416 650 605 252 194 502 427 672 625 246 288
421 611 484 891 25 110 23 321 -4 420 -55 206 -194 388 -402 529 -62 42 -76
48 -64 28z"/>
<path d="M7230 5466 c0 -3 16 -31 36 -62 182 -285 186 -672 10 -1023 -163
-323 -384 -550 -1136 -1166 -140 -115 -304 -251 -365 -303 -151 -128 -380
-356 -456 -452 -235 -296 -298 -561 -199 -832 29 -80 98 -213 106 -205 2 2 -6
28 -20 58 -66 152 -62 339 14 505 88 194 250 366 530 561 425 296 542 380 680
483 263 198 428 338 601 510 244 243 361 397 464 612 74 153 105 271 112 425
12 241 -50 448 -200 673 -71 108 -177 236 -177 216z"/>
</g>
</svg>
